<svg width="2160" height="150" viewBox="0 0 2160 150" fill="none" xmlns="http://www.w3.org/2000/svg">
<rect width="2160" height="150" fill="black"/>
<rect width="2160" height="7" fill="#C4C4C4"/>
<rect y="143" width="2160" height="7" fill="#C4C4C4"/>
<rect x="17" y="69" width="86" height="6" fill="white"/>
<rect x="143" y="69" width="86" height="6" fill="white"/>
<rect x="269" y="69" width="86" height="6" fill="white"/>
<rect x="395" y="69" width="86" height="6" fill="white"/>
<rect x="521" y="69" width="86" height="6" fill="white"/>
<rect x="647" y="69" width="86" height="6" fill="white"/>
<rect x="773" y="69" width="86" height="6" fill="white"/>
<rect x="899" y="69" width="86" height="6" fill="white"/>
<rect x="1025" y="69" width="86" height="6" fill="white"/>
<rect x="1151" y="69" width="86" height="6" fill="white"/>
    <rect x="1275" y="69" width="86" height="6" fill="white"/>
    <rect x="1400" y="69" width="86" height="6" fill="white"/>
    <rect x="1525" y="69" width="86" height="6" fill="white"/>
    <rect x="1650" y="69" width="86" height="6" fill="white"/>
    <rect x="1775" y="69" width="86" height="6" fill="white"/>


</svg>
